<svg xmlns="http://www.w3.org/2000/svg" width="37" height="35" viewBox="0 0 37 35" fill="none"><path d="M18.7401 34.865C8.66226 34.7884 0.395186 27.038 0.278569 17.5573C0.161952 8.0765 8.23989 0.45025 18.3177 0.526787C28.3956 0.603324 36.6627 8.35371 36.7793 17.8345C36.8959 27.3153 28.818 34.9415 18.7401 34.865Z" fill="#EAEAEA"></path><path d="M6.99626 13.757L11.565 13.8048L11.8813 28.4796L7.31261 28.4318L6.99626 13.757ZM9.12509 6.48645C10.5861 6.50172 11.7976 7.69784 11.8292 9.15949C11.8607 10.6211 10.7002 11.7925 9.23915 11.7772C7.77468 11.7619 6.56315 10.5658 6.53164 9.10411C6.49677 7.64586 7.65719 6.4711 9.12509 6.48645Z" fill="#0E352D"></path><path d="M14.8652 13.7701L19.4381 13.8199L19.4967 15.8216L19.5613 15.8223C20.1624 14.6775 21.6797 13.4777 24.0038 13.503C28.8313 13.5556 29.8133 16.6021 29.9288 20.5473L30.1644 28.5918L25.3979 28.5398L25.1892 21.4139C25.1393 19.7104 25.0431 17.5267 22.5971 17.5001C20.1152 17.473 19.7892 19.3198 19.8452 21.2324L20.0576 28.4851L15.2947 28.4332L14.8652 13.7701Z" fill="#0E352D"></path></svg>